<svg xmlns="http://www.w3.org/2000/svg" xmlns:xlink="http://www.w3.org/1999/xlink" viewBox="0,0,256,256" width="48px" height="48px"><g fill="#0f8f5f" fill-rule="nonzero" stroke="none" stroke-width="1" stroke-linecap="butt" stroke-linejoin="miter" stroke-miterlimit="10" stroke-dasharray="" stroke-dashoffset="0" font-family="none" font-weight="none" font-size="none" text-anchor="none" style="mix-blend-mode: normal"><g transform="scale(10.66667,10.66667)"><path d="M11,3v5.1582c-0.347,-0.141 -1.09584,-0.1582 -1.46484,-0.1582c-2.776,0 -5.3457,1.306 -5.3457,5c0,4.42 3.48055,5 5.81055,5c0.92,0 3,-0.09086 4,-0.38086v-14.61914zM16,3v3h3v-3zM16,8v8.70117c0,1.516 -0.922,3.094 -3,4l2.85938,1.29492c2.906,-1 3.14063,-4.29492 3.14063,-5.29492v-8.70117zM9.9707,10.55078c0.32,0 0.6793,0.05867 1.0293,0.13867v4.70313c-0.35,0.08 -0.7093,0.14063 -1.0293,0.14063c-1.31,0 -2.58008,-0.4132 -2.58008,-2.5332c0,-2.12 1.27008,-2.44922 2.58008,-2.44922z"></path></g></g></svg>